<svg xmlns="http://www.w3.org/2000/svg" width="17" height="17" viewBox="0 0 17 17"><path d="M15.502 10.131A3.242 3.242 0 0 1 16.7 5.707l-1.671-2.894c-.477.28-1.032.44-1.624.44-1.785 0-3.232-1.457-3.232-3.254H6.832a3.202 3.202 0 0 1-.431 1.631c-.892 1.545-2.875 2.07-4.43 1.175L.3 5.699c.481.273.897.674 1.193 1.187.89 1.542.357 3.518-1.19 4.42L1.974 14.2a3.204 3.204 0 0 1 1.617-.436c1.78 0 3.223 1.448 3.232 3.237h3.341a3.204 3.204 0 0 1 .431-1.614c.89-1.542 2.868-2.068 4.423-1.179l1.671-2.893a3.201 3.201 0 0 1-1.186-1.182zM8.5 11.942a3.442 3.442 0 1 1 0-6.884 3.442 3.442 0 0 1 0 6.884z"/></svg>