<svg xmlns="http://www.w3.org/2000/svg"><symbol id="icon-bell" viewBox="0 0 32 32"><path d="M32 26c-3.314 0-6-2.686-6-6v-8.91c0-4.397-3.436-8.065-8-8.908V0h-4v2.182c-4.564.842-8 4.51-8 8.91V20c0 3.314-2.686 6-6 6v2h13.425c-.163.357-.253.754-.253 1.172 0 1.562 1.266 2.828 2.83 2.828s2.827-1.266 2.827-2.828c0-.418-.092-.815-.254-1.172H32v-2z"/></symbol><symbol id="icon-download" viewBox="0 0 512 512"><path d="M256 288l128-128h-96V32h-64v128h-96zm116.363-52.364l-35.87 35.87L466.533 320 256 398.51 45.467 320l130.04-48.493-35.87-35.87L0 288v128l256 96 256-96V288z"/></symbol><symbol id="icon-gear" viewBox="0 0 32 32"><path d="M29.18 19.07c-1.678-2.908-.668-6.634 2.256-8.328L28.29 5.295c-.897.527-1.942.83-3.057.83-3.36 0-6.085-2.743-6.085-6.126h-6.29c.01 1.043-.25 2.102-.81 3.07-1.68 2.907-5.41 3.896-8.34 2.21L.566 10.727c.905.515 1.69 1.268 2.246 2.234 1.677 2.904.673 6.624-2.24 8.32l3.145 5.447c.895-.522 1.935-.82 3.044-.82 3.35 0 6.066 2.725 6.083 6.092h6.29c-.004-1.035.258-2.08.81-3.04 1.676-2.902 5.4-3.893 8.325-2.218l3.145-5.447c-.9-.515-1.678-1.266-2.232-2.226zM16 22.48c-3.578 0-6.48-2.902-6.48-6.48S12.423 9.52 16 9.52c3.578 0 6.48 2.902 6.48 6.48s-2.902 6.48-6.48 6.48z"/></symbol><symbol id="icon-login" viewBox="0 0 32 32"><path d="M28 2H6c-1.1 0-2 .9-2 2v8h4V6h18v22H8v-6H4v8c0 1.1.9 2 2 2h22c1.1 0 2-.9 2-2V4c0-1.1-.9-2-2-2zM12 26l9-9-9-9v6H0v6h12z"/></symbol><symbol id="icon-logo" viewBox="0 0 512 512"><path d="M272 0l-48 48 48 48-112 128H48l88 88L0 492.308V512h19.692L200 376l88 88V352l128-112 48 48 48-48L272 0zm-48 272l-32-32 112-112 32 32-112 112z"/></symbol><symbol id="icon-logout" viewBox="0 0 32 32"><path d="M31 17l-9-9v6H10v6h12v6zM26 6V4c0-1.1-.9-2-2-2H2C.9 2 0 2.9 0 4v26c0 1.1.9 2 2 2h22c1.1 0 2-.9 2-2v-2H4V6h22z"/></symbol><symbol id="icon-photos" viewBox="0 0 512 512"><path d="M384 32H0v384h384V32zm-32 288H32V64h320v256zm-96-160l-22.857 45.714L160 96 64 288h256zm160-36.623V448H60.472l-2.508 23.86L439.86 512 480 130.104z"/></symbol><symbol id="icon-plus" viewBox="0 0 32 32"><path d="M31 12H20V1c0-.552-.448-1-1-1h-6c-.552 0-1 .448-1 1v11H1c-.552 0-1 .448-1 1v6c0 .552.448 1 1 1h11v11c0 .552.448 1 1 1h6c.552 0 1-.448 1-1V20h11c.552 0 1-.448 1-1v-6c0-.552-.448-1-1-1z"/></symbol><symbol id="icon-upload" viewBox="0 0 512 512"><path d="M224 288h64V160h96L256 32 128 160h96zm96-72v49.356L466.533 320 256 398.51 45.467 320 192 265.356V216L0 288v128l256 96 256-96V288z"/></symbol></svg>