<?xml version="1.0" encoding="utf-8"?>
<!-- Generated by IcoMoon.io -->
<!DOCTYPE svg PUBLIC "-//W3C//DTD SVG 1.1//EN" "http://www.w3.org/Graphics/SVG/1.1/DTD/svg11.dtd">
<svg version="1.1" xmlns="http://www.w3.org/2000/svg" xmlns:xlink="http://www.w3.org/1999/xlink" width="17" height="17" viewBox="0 0 17 17">
<path d="M15.502 10.131c-0.892-1.545-0.356-3.525 1.198-4.424l-1.671-2.894c-0.477 0.28-1.032 0.44-1.624 0.44-1.785 0-3.232-1.457-3.232-3.254h-3.341c0.004 0.555-0.134 1.117-0.431 1.631-0.892 1.545-2.875 2.070-4.43 1.175l-1.671 2.894c0.481 0.273 0.897 0.674 1.193 1.187 0.89 1.542 0.357 3.518-1.19 4.42l1.671 2.894c0.476-0.277 1.028-0.436 1.617-0.436 1.78 0 3.223 1.448 3.232 3.237h3.341c-0.001-0.549 0.137-1.105 0.431-1.614 0.89-1.542 2.868-2.068 4.423-1.179l1.671-2.893c-0.478-0.273-0.891-0.672-1.186-1.182zM8.5 11.942c-1.901 0-3.442-1.541-3.442-3.442s1.541-3.442 3.442-3.442c1.901 0 3.442 1.541 3.442 3.442s-1.541 3.442-3.442 3.442z"></path>
</svg>
