<?xml version="1.0" encoding="utf-8"?>
<!-- Generated by IcoMoon.io -->
<!DOCTYPE svg PUBLIC "-//W3C//DTD SVG 1.1//EN" "http://www.w3.org/Graphics/SVG/1.1/DTD/svg11.dtd">
<svg version="1.1" xmlns="http://www.w3.org/2000/svg" xmlns:xlink="http://www.w3.org/1999/xlink" width="17" height="17" viewBox="0 0 17 17">
<path fill="#272727" d="M8.5 0c-4.694 0-8.5 1.189-8.5 2.656v1.594l6.375 6.375v5.313c0 0.587 0.951 1.063 2.125 1.063s2.125-0.476 2.125-1.063v-5.313l6.375-6.375v-1.594c0-1.467-3.806-2.656-8.5-2.656zM1.567 2.305c0.398-0.227 0.956-0.442 1.615-0.622 1.46-0.4 3.349-0.62 5.318-0.62s3.858 0.22 5.318 0.62c0.659 0.18 1.217 0.396 1.615 0.622 0.262 0.15 0.404 0.276 0.47 0.352-0.066 0.076-0.208 0.202-0.47 0.352-0.398 0.227-0.956 0.442-1.615 0.622-1.46 0.4-3.349 0.62-5.318 0.62s-3.858-0.22-5.318-0.62c-0.659-0.18-1.217-0.396-1.615-0.622-0.262-0.15-0.404-0.276-0.47-0.352 0.066-0.076 0.208-0.202 0.47-0.352z"></path>
</svg>
