<?xml version="1.0" encoding="utf-8"?>
<!-- Generated by IcoMoon.io -->
<!DOCTYPE svg PUBLIC "-//W3C//DTD SVG 1.1//EN" "http://www.w3.org/Graphics/SVG/1.1/DTD/svg11.dtd">
<svg version="1.1" xmlns="http://www.w3.org/2000/svg" xmlns:xlink="http://www.w3.org/1999/xlink" width="17" height="17" viewBox="0 0 17 17">
<path d="M16.473 14.467l-4.027-3.425c-0.416-0.375-0.861-0.547-1.221-0.53 0.951-1.113 1.525-2.558 1.525-4.137 0-3.521-2.854-6.375-6.375-6.375s-6.375 2.854-6.375 6.375c0 3.521 2.854 6.375 6.375 6.375 1.579 0 3.023-0.574 4.137-1.525-0.017 0.36 0.155 0.805 0.53 1.221l3.425 4.027c0.586 0.652 1.544 0.706 2.129 0.122s0.529-1.542-0.122-2.129zM6.375 10.625c-2.347 0-4.25-1.903-4.25-4.25s1.903-4.25 4.25-4.25 4.25 1.903 4.25 4.25-1.903 4.25-4.25 4.25z"></path>
</svg>
